<svg xmlns="http://www.w3.org/2000/svg" viewBox="0 0 120 120" fill="none" role="img" aria-label="Folha de Arruda decorativa">
  <path d="M60 110 Q55 80 65 60 Q60 65 58 75 Q54 60 50 65 Q52 75 56 80 Q48 70 44 75 Q48 84 54 86 Q46 82 42 88 Q48 94 55 90 Q50 96 48 104 Q54 100 58 94 Q60 100 60 110Z" fill="#5A7D6B" opacity="0.8"/>
  <path d="M60 110 Q65 78 55 58 Q60 63 62 73 Q66 58 70 63 Q68 73 64 78 Q72 68 76 73 Q72 82 66 84 Q74 80 78 86 Q72 92 65 88 Q70 94 72 102 Q66 98 62 92 Q60 98 60 110Z" fill="#4A6B5A" opacity="0.6"/>
</svg>
