<svg xmlns="http://www.w3.org/2000/svg" viewBox="0 0 120 100" fill="none" role="img" aria-label="Ramo de Alecrim decorativo">
  <line x1="10" y1="90" x2="90" y2="10" stroke="#2D5A27" stroke-width="2.5" stroke-linecap="round"/>
  <path d="M25 78 L20 70 L28 74Z" fill="#3D7A4A" opacity="0.8"/>
  <path d="M35 68 L30 58 L38 64Z" fill="#3D7A4A" opacity="0.8"/>
  <path d="M45 58 L40 48 L48 54Z" fill="#3D7A4A" opacity="0.8"/>
  <path d="M55 48 L50 38 L58 44Z" fill="#3D7A4A" opacity="0.8"/>
  <path d="M65 38 L60 28 L68 34Z" fill="#3D7A4A" opacity="0.8"/>
  <path d="M22 73 L30 72 L26 80Z" fill="#3D7A4A" opacity="0.8"/>
  <path d="M32 63 L40 62 L36 70Z" fill="#3D7A4A" opacity="0.8"/>
  <path d="M42 53 L50 52 L46 60Z" fill="#3D7A4A" opacity="0.8"/>
  <path d="M52 43 L60 42 L56 50Z" fill="#3D7A4A" opacity="0.8"/>
  <path d="M62 33 L70 32 L66 40Z" fill="#3D7A4A" opacity="0.8"/>
</svg>
